<?xml version="1.0" encoding="iso-8859-1"?>
<!-- Generator: Adobe Illustrator 19.0.0, SVG Export Plug-In . SVG Version: 6.00 Build 0)  -->
<svg version="1.1" id="Capa_1" xmlns="http://www.w3.org/2000/svg" xmlns:xlink="http://www.w3.org/1999/xlink" x="0px" y="0px"
	 viewBox="0 0 512 512" style="enable-background:new 0 0 512 512;" xml:space="preserve">
<g>
	<g>
		<path d="M105,90h107.509c6.968,34.192,37.271,60,73.491,60h150c8.284,0,15-6.716,15-15v-15h46c8.284,0,15-6.716,15-15V45
			c0-8.284-6.716-15-15-15h-46V15c0-8.284-6.716-15-15-15H286c-36.22,0-66.522,25.808-73.491,60H105C47.103,60,0,107.103,0,165
			c0,57.897,47.103,105,105,105h301c41.196,0,76,34.804,76,76s-34.804,76-76,76H299.491c-6.968-34.192-37.271-60-73.491-60H75
			c-8.284,0-15,6.716-15,15v15H15c-8.284,0-15,6.716-15,15v60c0,8.284,6.716,15,15,15h45v15c0,8.284,6.716,15,15,15h151
			c36.22,0,66.522-25.808,73.491-60H406c57.969,0,106-47.857,106-106c0-57.969-47.857-106-106-106H105c-41.355,0-75-33.645-75-75
			S63.645,90,105,90z M451,60h31v30h-31V60z M286,30h135c0,14.8,0,80.875,0,90H286c-24.813,0-45-20.187-45-45S261.187,30,286,30z
			 M60,452H30v-30h30V452z M226,482H90c0-9.109,0-75.331,0-90h136c24.813,0,45,20.187,45,45S250.813,482,226,482z"/>
	</g>
</g>
<g>
	<g>
		<path d="M226,422h-91c-8.284,0-15,6.716-15,15s6.716,15,15,15h91c8.284,0,15-6.716,15-15S234.284,422,226,422z"/>
	</g>
</g>
<g>
	<g>
		<path d="M376,60h-90c-8.284,0-15,6.716-15,15s6.716,15,15,15h90c8.284,0,15-6.716,15-15S384.284,60,376,60z"/>
	</g>
</g>
<g>
</g>
<g>
</g>
<g>
</g>
<g>
</g>
<g>
</g>
<g>
</g>
<g>
</g>
<g>
</g>
<g>
</g>
<g>
</g>
<g>
</g>
<g>
</g>
<g>
</g>
<g>
</g>
<g>
</g>
</svg>
