<?xml version="1.0" encoding="iso-8859-1"?>
<!-- Generator: Adobe Illustrator 19.0.0, SVG Export Plug-In . SVG Version: 6.00 Build 0)  -->
<svg version="1.1" id="Capa_1" xmlns="http://www.w3.org/2000/svg" xmlns:xlink="http://www.w3.org/1999/xlink" x="0px" y="0px"
	 viewBox="0 0 512 512" style="enable-background:new 0 0 512 512;" xml:space="preserve">
<g>
	<g>
		<circle cx="437" cy="315" r="15"/>
	</g>
</g>
<g>
	<g>
		<path d="M135,60c-41.355,0-75,33.645-75,75s33.645,75,75,75s75-33.645,75-75S176.355,60,135,60z M135,180
			c-24.813,0-45-20.187-45-45s20.187-45,45-45s45,20.187,45,45S159.813,180,135,180z"/>
	</g>
</g>
<g>
	<g>
		<path d="M467,240H255c-5.257,0-10.307,0.906-15,2.57v-22.822c18.751-23.186,30-52.676,30-84.749C270,60.561,209.439,0,135,0
			S0,60.561,0,135c0,32.072,11.249,61.563,30,84.749V467c0,24.813,20.187,45,45,45h120c24.813,0,45-20.187,45-45v-19.57
			c4.693,1.664,9.743,2.57,15,2.57h212c24.813,0,45-20.187,45-45V285C512,260.187,491.813,240,467,240z M210,467
			c0,8.271-6.729,15-15,15H75c-8.271,0-15-6.729-15-15V247.194C81.466,261.591,107.268,270,135,270s53.534-8.409,75-22.806
			C210,255.966,210,456.948,210,467z M135,240c-57.897,0-105-47.103-105-105C30,77.103,77.103,30,135,30
			c57.897,0,105,47.103,105,105C240,192.897,192.897,240,135,240z M240,330h45c8.271,0,15,6.729,15,15s-6.729,15-15,15h-45V330z
			 M482,405c0,8.271-6.729,15-15,15H255c-8.271,0-15-6.729-15-15v-15h45c24.813,0,45-20.187,45-45s-20.187-45-45-45h-45v-15
			c0-8.271,6.729-15,15-15h212c8.271,0,15,6.729,15,15V405z"/>
	</g>
</g>
<g>
	<g>
		<path d="M165,300h-60c-8.284,0-15,6.716-15,15s6.716,15,15,15h60c8.284,0,15-6.716,15-15S173.284,300,165,300z"/>
	</g>
</g>
<g>
</g>
<g>
</g>
<g>
</g>
<g>
</g>
<g>
</g>
<g>
</g>
<g>
</g>
<g>
</g>
<g>
</g>
<g>
</g>
<g>
</g>
<g>
</g>
<g>
</g>
<g>
</g>
<g>
</g>
</svg>
