<?xml version="1.0" encoding="iso-8859-1"?>
<!-- Generator: Adobe Illustrator 19.0.0, SVG Export Plug-In . SVG Version: 6.00 Build 0)  -->
<svg version="1.1" id="Capa_1" xmlns="http://www.w3.org/2000/svg" xmlns:xlink="http://www.w3.org/1999/xlink" x="0px" y="0px"
	 viewBox="0 0 512 512" style="enable-background:new 0 0 512 512;" xml:space="preserve">
<g>
	<g>
		<path d="M497,120H300v-15c0-24.813-20.187-45-45-45h-45V15c0-8.284-6.716-15-15-15h-90c-8.284,0-15,6.716-15,15v45H45
			C20.187,60,0,80.187,0,105v30c0,8.284,6.716,15,15,15h15v272H15c-8.284,0-15,6.716-15,15v30c0,24.813,20.187,45,45,45h210
			c24.813,0,45-20.187,45-45v-15h137c8.284,0,15-6.716,15-15v-30c0-24.813,20.187-45,45-45c8.284,0,15-6.716,15-15
			c0-11.246,0-203.1,0-212C512,126.716,505.284,120,497,120z M392,150h30v30h-30V150z M330,150h32v30h-32V150z M300,150v30h-30v-30
			C280.856,150,289.144,150,300,150z M120,30h60v30h-60V30z M30,105c0-8.271,6.729-15,15-15c6.397,0,198.974,0,210,0
			c8.271,0,15,6.729,15,15v15c-4.673,0-215.389,0-240,0V105z M240,150v272H120V150H240z M90,150v272H60V150H90z M270,467
			c0,8.271-6.729,15-15,15H45c-8.271,0-15-6.729-15-15v-15c8.264,0,223.64,0,240,0V467z M300,422c-10.856,0-19.144,0-30,0v-30h30
			V422z M362,422h-32v-30h32V422z M422,407v15h-30v-30h31.525C422.536,396.85,422,401.862,422,407z M482,333.507
			c-18.264,3.723-34.132,14.108-44.956,28.493H270V210h212V333.507z M482,180h-30v-30h30V180z"/>
	</g>
</g>
<g>
</g>
<g>
</g>
<g>
</g>
<g>
</g>
<g>
</g>
<g>
</g>
<g>
</g>
<g>
</g>
<g>
</g>
<g>
</g>
<g>
</g>
<g>
</g>
<g>
</g>
<g>
</g>
<g>
</g>
</svg>
