<?xml version="1.0" encoding="iso-8859-1"?>
<!-- Generator: Adobe Illustrator 19.0.0, SVG Export Plug-In . SVG Version: 6.00 Build 0)  -->
<svg version="1.1" id="Capa_1" xmlns="http://www.w3.org/2000/svg" xmlns:xlink="http://www.w3.org/1999/xlink" x="0px" y="0px"
	 viewBox="0 0 512.001 512.001" style="enable-background:new 0 0 512.001 512.001;" xml:space="preserve">
<g>
	<g>
		<path d="M376.001,0.001h-240c-24.813,0-45,20.187-45,45v150c0,20.406,13.658,37.673,32.31,43.166l27.69,140.299v28.535
			c0,19.555,12.541,36.228,30,42.42v47.58c0,8.285,6.716,15,15,15h120c8.284,0,15-6.716,15-15v-47.58
			c17.459-6.192,30-22.865,30-42.42v-28.536l27.69-140.298c18.652-5.493,32.31-22.759,32.31-43.166v-150
			C421.001,20.188,400.814,0.001,376.001,0.001z M301.001,482.001h-90v-30h90V482.001z M331.001,407.001c0,8.271-6.729,15-15,15
			h-120c-8.271,0-15-6.729-15-15v-15h150V407.001z M333.672,362.001H178.329l-24.079-122h203.5L333.672,362.001z M391.001,195.001
			c0,8.271-6.729,15-15,15h-240c-8.271,0-15-6.729-15-15v-150c0-8.271,6.729-15,15-15h240c8.271,0,15,6.729,15,15V195.001z"/>
	</g>
</g>
<g>
	<g>
		<path d="M346.001,60.001h-180c-8.284,0-15,6.716-15,15v90c0,8.285,6.716,15,15,15h180c8.284,0,15-6.716,15-15v-90
			C361.001,66.717,354.285,60.001,346.001,60.001z M331.001,150.001h-150v-60h150V150.001z"/>
	</g>
</g>
<g>
	<g>
		<path d="M45.001,90.001h-30c-8.284,0-15,6.716-15,15s6.716,15,15,15h30c8.284,0,15-6.716,15-15S53.285,90.001,45.001,90.001z"/>
	</g>
</g>
<g>
	<g>
		<path d="M55.607,34.394l-30-30c-5.857-5.858-15.355-5.858-21.213,0c-5.858,5.858-5.858,15.355,0,21.213l30.001,30.001
			c2.929,2.929,6.767,4.393,10.606,4.393s7.678-1.464,10.606-4.394C61.465,49.749,61.465,40.252,55.607,34.394z"/>
	</g>
</g>
<g>
	<g>
		<path d="M55.607,154.394c-5.857-5.858-15.355-5.858-21.213,0l-30,30c-5.858,5.858-5.858,15.355,0,21.213
			c2.93,2.93,6.768,4.394,10.607,4.394s7.678-1.464,10.606-4.394l30-30C61.465,169.749,61.465,160.252,55.607,154.394z"/>
	</g>
</g>
<g>
	<g>
		<path d="M497.001,90.001h-30c-8.284,0-15,6.716-15,15s6.716,15,15,15h30c8.284,0,15-6.716,15-15S505.285,90.001,497.001,90.001z"
			/>
	</g>
</g>
<g>
	<g>
		<path d="M507.607,4.394c-5.857-5.857-15.355-5.857-21.212,0.001l-30,30c-5.858,5.858-5.858,15.355,0,21.213
			c2.929,2.929,6.767,4.393,10.606,4.393s7.678-1.464,10.606-4.394l30-30C513.464,19.749,513.464,10.252,507.607,4.394z"/>
	</g>
</g>
<g>
	<g>
		<path d="M507.608,184.395l-30-30c-5.857-5.858-15.355-5.858-21.213,0c-5.858,5.858-5.858,15.355,0,21.213l30,30
			c5.857,5.858,15.356,5.858,21.213,0C513.465,199.75,513.465,190.253,507.608,184.395z"/>
	</g>
</g>
<g>
	<g>
		<path d="M286.001,270.001h-60c-8.284,0-15,6.716-15,15s6.716,15,15,15h60c8.284,0,15-6.716,15-15S294.285,270.001,286.001,270.001
			z"/>
	</g>
</g>
<g>
</g>
<g>
</g>
<g>
</g>
<g>
</g>
<g>
</g>
<g>
</g>
<g>
</g>
<g>
</g>
<g>
</g>
<g>
</g>
<g>
</g>
<g>
</g>
<g>
</g>
<g>
</g>
<g>
</g>
</svg>
