<?xml version="1.0" encoding="iso-8859-1"?>
<!-- Generator: Adobe Illustrator 19.0.0, SVG Export Plug-In . SVG Version: 6.00 Build 0)  -->
<svg version="1.1" id="Capa_1" xmlns="http://www.w3.org/2000/svg" xmlns:xlink="http://www.w3.org/1999/xlink" x="0px" y="0px"
	 viewBox="0 0 512 512" style="enable-background:new 0 0 512 512;" xml:space="preserve">
<g>
	<g>
		<circle cx="135" cy="437" r="15"/>
	</g>
</g>
<g>
	<g>
		<circle cx="436" cy="257" r="15"/>
	</g>
</g>
<g>
	<g>
		<circle cx="75" cy="437" r="15"/>
	</g>
</g>
<g>
	<g>
		<path d="M467,182h-69.787l-19.051-19.051L391.812,122H421c8.284,0,15-6.716,15-15V15c0-8.284-6.716-15-15-15H211
			c-8.284,0-15,6.716-15,15v92c0,8.284,6.716,15,15,15h29.188l13.65,40.949L234.787,182H45c-24.813,0-45,20.187-45,45v240
			c0,24.813,20.187,45,45,45h422c24.813,0,45-20.187,45-45V227C512,202.187,491.813,182,467,182z M226,92V30h180v62
			C400.698,92,230.759,92,226,92z M360.188,122l-10,30h-68.377l-10-30H360.188z M482,467c0,8.271-6.729,15-15,15H45
			c-8.271,0-15-6.729-15-15V227c0-8.271,6.729-15,15-15h196c3.978,0,7.793-1.58,10.606-4.393L277.213,182h77.574l25.606,25.607
			C383.206,210.42,387.021,212,391,212h76c8.271,0,15,6.729,15,15V467z"/>
	</g>
</g>
<g>
	<g>
		<path d="M165,242H75c-8.284,0-15,6.716-15,15v60c0,8.284,6.716,15,15,15h90c8.284,0,15-6.716,15-15v-60
			C180,248.716,173.284,242,165,242z M150,302H90v-30h60V302z"/>
	</g>
</g>
<g>
	<g>
		<path d="M316,242c-57.897,0-105,47.103-105,105c0,57.897,47.103,105,105,105c57.897,0,105-47.103,105-105
			C421,289.103,373.897,242,316,242z M316,422c-41.355,0-75-33.645-75-75c0-41.355,33.645-75,75-75c41.355,0,75,33.645,75,75
			C391,388.355,357.355,422,316,422z"/>
	</g>
</g>
<g>
	<g>
		<path d="M316,302c-24.813,0-45,20.187-45,45s20.187,45,45,45s45-20.187,45-45S340.813,302,316,302z M316,362
			c-8.271,0-15-6.729-15-15s6.729-15,15-15s15,6.729,15,15S324.271,362,316,362z"/>
	</g>
</g>
<g>
</g>
<g>
</g>
<g>
</g>
<g>
</g>
<g>
</g>
<g>
</g>
<g>
</g>
<g>
</g>
<g>
</g>
<g>
</g>
<g>
</g>
<g>
</g>
<g>
</g>
<g>
</g>
<g>
</g>
</svg>
