<?xml version="1.0" encoding="iso-8859-1"?>
<!-- Generator: Adobe Illustrator 19.0.0, SVG Export Plug-In . SVG Version: 6.00 Build 0)  -->
<svg version="1.1" id="Capa_1" xmlns="http://www.w3.org/2000/svg" xmlns:xlink="http://www.w3.org/1999/xlink" x="0px" y="0px"
	 viewBox="0 0 512 512" style="enable-background:new 0 0 512 512;" xml:space="preserve">
<g>
	<g>
		<path d="M512,345c0-8.284-6.716-15-15-15h-15V87.42c17.459-6.192,30-22.865,30-42.42c0-24.813-20.187-45-45-45
			C444.832,0,62.417,0,45,0C20.187,0,0,20.187,0,45c0,19.555,12.541,36.228,30,42.42V330H15c-8.284,0-15,6.716-15,15
			s6.716,14.9,15,14.9h62.356C67.72,391.65,52.747,421.67,33,448L3,488c-3.409,4.545-3.957,10.626-1.416,15.708
			C4.124,508.79,9.318,512,15,512h482c5.682,0,10.876-3.21,13.416-8.292c2.541-5.082,1.993-11.163-1.416-15.708l-30-40
			c-19.747-26.33-34.72-56.25-44.356-88H497C505.284,360,512,353.284,512,345z M120,30h272v60H120V30z M30,45
			c0-8.271,6.729-15,15-15h45v30H45C36.729,60,30,53.271,30,45z M60,330V90h30v185c0,18.53-1.791,36.959-5.247,55H60z M455,466
			l12,16H45l12-16c40.626-54.168,63-122,63-191V120h272v155C392,344,414.374,411.832,455,466z M452,330h-24.753
			c-3.456-18.041-5.247-36.47-5.247-55V90h30V330z M467,60h-45V30h45c8.271,0,15,6.729,15,15S475.271,60,467,60z"/>
	</g>
</g>
<g>
</g>
<g>
</g>
<g>
</g>
<g>
</g>
<g>
</g>
<g>
</g>
<g>
</g>
<g>
</g>
<g>
</g>
<g>
</g>
<g>
</g>
<g>
</g>
<g>
</g>
<g>
</g>
<g>
</g>
</svg>
